<svg width="150" height="150" viewBox="0 0 150 150" fill="none" xmlns="http://www.w3.org/2000/svg">
<path d="M0 0H150V150H0V0Z" fill="white"/>
<path d="M73.7169 82.2286C73.7169 84.9486 73.0392 86.9238 71.6838 88.1543C70.3607 89.3848 68.2953 90 65.4877 90H56V56H60.1146V66.6857C61.0827 66.0381 62.2929 65.7143 63.7451 65.7143H65.4877C68.3276 65.7143 70.4091 66.3295 71.7322 67.56C73.0553 68.7581 73.7169 70.7333 73.7169 73.4857V82.2286ZM63.261 69.3571C62.1961 69.3571 61.4054 69.6486 60.8891 70.2314C60.3727 70.7819 60.1146 71.381 60.1146 72.0286V86.3571H65.9718C67.1658 86.3571 68.0694 86.0819 68.6826 85.5314C69.2957 84.981 69.6023 84.2038 69.6023 83.2V72.5143C69.6023 71.5105 69.2957 70.7333 68.6826 70.1829C68.0694 69.6324 67.1658 69.3571 65.9718 69.3571H63.261Z" fill="#DF3932"/>
<path d="M98.1158 90C97.6963 90 97.2283 89.8705 96.712 89.6114C96.2279 89.3524 95.8084 88.9962 95.4534 88.5429C94.7112 89.5143 93.7269 90 92.5006 90H88.1924C85.7398 90 83.9487 89.5143 82.8193 88.5429C81.722 87.539 81.1734 85.839 81.1734 83.4429V82.4714C81.1734 77.4524 83.5292 74.9429 88.2408 74.9429H94.2433V72.5143C94.2433 71.5105 93.9367 70.7333 93.3235 70.1829C92.7104 69.6324 91.8068 69.3571 90.6127 69.3571H83.1097V65.7143H90.1287C92.9363 65.7143 95.0016 66.3295 96.3247 67.56C97.6801 68.7905 98.3578 70.7657 98.3578 73.4857V85.1429C98.3578 85.6286 98.5353 86.001 98.8903 86.26C99.2776 86.4867 99.9068 86.6 100.778 86.6V90H98.1158ZM92.0165 86.3571C92.9847 86.3571 93.5978 86.1305 93.856 85.6771C94.1142 85.2238 94.2433 84.641 94.2433 83.9286V78.5857H88.1924C87.3534 78.5857 86.6595 78.861 86.1109 79.4114C85.5623 79.9619 85.288 80.6581 85.288 81.5V83.9286C85.288 84.7705 85.4816 85.3857 85.8689 85.7743C86.2561 86.1629 86.8693 86.3571 87.7083 86.3571H92.0165Z" fill="#DF3932"/>
<path d="M112.156 65.7143V66.88C113.156 66.1029 114.447 65.7143 116.028 65.7143H118.255C120.869 65.7143 122.805 66.3295 124.064 67.56C125.355 68.7905 126 70.7657 126 73.4857V90H121.885V72.5143C121.885 71.5429 121.595 70.7819 121.014 70.2314C120.465 69.6486 119.707 69.3571 118.739 69.3571H115.544C114.479 69.3571 113.689 69.6486 113.172 70.2314C112.656 70.7819 112.398 71.381 112.398 72.0286V90H108.283V65.7143H112.156Z" fill="#DF3932"/>
<circle cx="30.5" cy="78.5" r="11" fill="#DF3932" stroke="#DF3932"/>
</svg>
