<svg width="131" height="104" viewBox="0 0 131 104" fill="none" xmlns="http://www.w3.org/2000/svg">
<rect width="131" height="104" fill="white"/>
<path d="M2 22.4907V1.66003H3.81136V22.4907H2Z" fill="black"/>
<path d="M33.6482 46C32.3199 46 31.3463 45.7208 30.7274 45.1623C30.1085 44.5887 29.7991 43.6604 29.7991 42.3773V38.3018C29.7991 37.0036 30.0783 36.0753 30.6368 35.5168C31.1953 34.9583 32.1236 34.679 33.4218 34.679H34.0331C35.1048 34.679 35.9124 34.9809 36.4558 35.5847C37.0143 36.1734 37.2936 37.0414 37.2936 38.1886V41.132H31.7236V42.8302C31.7236 43.2981 31.867 43.6604 32.1538 43.917C32.4406 44.1736 32.8633 44.3019 33.4218 44.3019H36.569V46H33.6482ZM35.4143 39.4339V37.7357C35.4143 37.3433 35.286 37.0187 35.0294 36.7621C34.7728 36.5055 34.4482 36.3772 34.0558 36.3772H33.1954C32.652 36.3772 32.267 36.5055 32.0406 36.7621C31.8293 37.0036 31.7236 37.3659 31.7236 37.8489V39.4339H35.4143Z" fill="black"/>
<path d="M40.5726 34.679H42.3839V35.2904C42.8821 34.8828 43.4859 34.679 44.1953 34.679H45.8482V36.4904H43.9689C43.4708 36.4904 43.1009 36.6564 42.8594 36.9885C42.6179 37.3206 42.4972 37.6451 42.4972 37.9621V46H40.5726V34.679Z" fill="black"/>
<path d="M49.9239 46C49.4107 46 48.9578 45.8189 48.5654 45.4566C48.188 45.0944 47.9993 44.5208 47.9993 43.7358V30.1507H49.9239V43.6226C49.9239 43.8641 49.9843 44.0377 50.105 44.1434C50.2258 44.2491 50.4296 44.3019 50.7164 44.3019H51.1692V46H49.9239Z" fill="black"/>
<path d="M53.6598 32.1884V30.1507H55.8108V32.1884H53.6598ZM53.773 46V34.679H55.6976V46H53.773Z" fill="black"/>
<path d="M59.323 34.679H61.1343V35.2225C61.6023 34.8602 62.2061 34.679 62.9457 34.679H63.5344C64.757 34.679 65.6627 34.9658 66.2514 35.5394C66.8552 36.113 67.1571 37.0338 67.1571 38.3018V46H65.2325V37.8489C65.2325 37.3961 65.0967 37.0414 64.825 36.7848C64.5684 36.513 64.2136 36.3772 63.7608 36.3772H62.7193C62.2211 36.3772 61.8513 36.513 61.6098 36.7848C61.3683 37.0414 61.2475 37.3206 61.2475 37.6225V46H59.323V34.679Z" fill="black"/>
<path d="M2.37752 74.4907V53.66H4.18888V74.4907H2.37752Z" fill="black"/>
<path d="M30.7773 60.679H32.5886V61.2904C33.0868 60.8828 33.6905 60.679 34.4 60.679H36.0529V62.4904H34.1736C33.6755 62.4904 33.3056 62.6564 33.0641 62.9885C32.8226 63.3206 32.7018 63.6451 32.7018 63.9621V72H30.7773V60.679Z" fill="black"/>
<path d="M41.6083 72C40.28 72 39.3064 71.7208 38.6875 71.1623C38.0686 70.5887 37.7591 69.6604 37.7591 68.3773V64.3018C37.7591 63.0338 38.0686 62.113 38.6875 61.5394C39.3214 60.9658 40.295 60.679 41.6083 60.679H44.0763V62.3772H41.3819C40.8234 62.3772 40.4007 62.5055 40.1139 62.7621C39.8271 63.0187 39.6837 63.381 39.6837 63.8489V68.8302C39.6837 69.2981 39.8271 69.6604 40.1139 69.917C40.4007 70.1736 40.8234 70.3019 41.3819 70.3019H44.0763V72H41.6083Z" fill="black"/>
<path d="M47.0291 56.1507H48.9537V61.1319C49.4065 60.83 49.9725 60.679 50.6518 60.679H51.2405C52.4632 60.679 53.3688 60.9658 53.9575 61.5394C54.5613 62.113 54.8632 63.0338 54.8632 64.3018V72H52.9386V63.8489C52.9386 63.3961 52.8028 63.0414 52.5311 62.7848C52.2745 62.513 51.9198 62.3772 51.4669 62.3772H50.4254C49.9424 62.3772 49.5725 62.5055 49.3159 62.7621C49.0744 63.0036 48.9537 63.2678 48.9537 63.5546V72H47.0291V56.1507Z" fill="black"/>
<path d="M58.259 58.1884V56.1507H60.41V58.1884H58.259ZM58.3722 72V60.679H60.2968V72H58.3722Z" fill="black"/>
<path d="M66.4127 72C65.6429 72 65.0542 71.751 64.6467 71.2529C64.2391 70.7547 64.0353 70.0981 64.0353 69.283V62.3772H62.5636V60.679H64.0353V57.962H65.9599V60.679H68.5864V62.3772H65.9599V69.3962C65.9599 69.7283 66.0429 69.9623 66.209 70.0981C66.375 70.234 66.6316 70.3019 66.9788 70.3019H68.5864V72H66.4127Z" fill="black"/>
<path d="M74.5762 72C73.2479 72 72.2743 71.7208 71.6554 71.1623C71.0365 70.5887 70.7271 69.6604 70.7271 68.3773V64.3018C70.7271 63.0036 71.0063 62.0753 71.5648 61.5168C72.1234 60.9583 73.0517 60.679 74.3498 60.679H74.9611C76.0329 60.679 76.8404 60.9809 77.3838 61.5847C77.9423 62.1734 78.2216 63.0414 78.2216 64.1886V67.132H72.6517V68.8302C72.6517 69.2981 72.7951 69.6604 73.0819 69.917C73.3687 70.1736 73.7913 70.3019 74.3498 70.3019H77.497V72H74.5762ZM76.3423 65.4339V63.7357C76.3423 63.3433 76.214 63.0187 75.9574 62.7621C75.7008 62.5055 75.3762 62.3772 74.9838 62.3772H74.1234C73.58 62.3772 73.1951 62.5055 72.9687 62.7621C72.7573 63.0036 72.6517 63.3659 72.6517 63.8489V65.4339H76.3423Z" fill="black"/>
<path d="M85.1233 72C83.795 72 82.8214 71.7208 82.2025 71.1623C81.5836 70.5887 81.2742 69.6604 81.2742 68.3773V64.3018C81.2742 63.0338 81.5836 62.113 82.2025 61.5394C82.8365 60.9658 83.8101 60.679 85.1233 60.679H87.5913V62.3772H84.8969C84.3384 62.3772 83.9158 62.5055 83.629 62.7621C83.3422 63.0187 83.1988 63.381 83.1988 63.8489V68.8302C83.1988 69.2981 83.3422 69.6604 83.629 69.917C83.9158 70.1736 84.3384 70.3019 84.8969 70.3019H87.5913V72H85.1233Z" fill="black"/>
<path d="M93.0348 72C92.2649 72 91.6762 71.751 91.2687 71.2529C90.8611 70.7547 90.6573 70.0981 90.6573 69.283V62.3772H89.1856V60.679H90.6573V57.962H92.5819V60.679H95.2084V62.3772H92.5819V69.3962C92.5819 69.7283 92.6649 69.9623 92.831 70.0981C92.997 70.234 93.2536 70.3019 93.6008 70.3019H95.2084V72H93.0348Z" fill="black"/>
<path d="M103.213 71.4793C102.715 71.8264 102.111 72 101.402 72H101.085C99.8624 72 98.9491 71.7132 98.3454 71.1396C97.7567 70.566 97.4623 69.6453 97.4623 68.3773V60.679H99.3869V68.8302C99.3869 69.283 99.5152 69.6453 99.7718 69.917C100.044 70.1736 100.406 70.3019 100.859 70.3019H101.628C102.111 70.3019 102.466 70.1811 102.693 69.9396C102.934 69.6981 103.07 69.4264 103.1 69.1245V60.679H105.025V72H103.213V71.4793Z" fill="black"/>
<path d="M108.653 60.679H110.465V61.2904C110.963 60.8828 111.567 60.679 112.276 60.679H113.929V62.4904H112.05C111.551 62.4904 111.182 62.6564 110.94 62.9885C110.699 63.3206 110.578 63.6451 110.578 63.9621V72H108.653V60.679Z" fill="black"/>
<path d="M122.762 72C122.566 72 122.347 71.9397 122.105 71.8189C121.879 71.6981 121.683 71.5321 121.517 71.3208C121.17 71.7736 120.709 72 120.136 72H118.573C117.426 72 116.588 71.7736 116.06 71.3208C115.547 70.8528 115.29 70.0604 115.29 68.9434V68.4905C115.29 66.1509 116.392 64.981 118.596 64.981H120.951V63.8489C120.951 63.381 120.807 63.0187 120.521 62.7621C120.234 62.5055 119.811 62.3772 119.253 62.3772H116.196V60.679H119.026C120.339 60.679 121.305 60.9658 121.924 61.5394C122.558 62.113 122.875 63.0338 122.875 64.3018V69.7358C122.875 69.9623 122.958 70.1358 123.124 70.2566C123.305 70.3623 123.6 70.4151 124.007 70.4151V72H122.762ZM119.909 70.3019C120.362 70.3019 120.649 70.1962 120.77 69.9849C120.89 69.7736 120.951 69.5019 120.951 69.1698V66.6792H118.573C118.181 66.6792 117.856 66.8075 117.6 67.0641C117.343 67.3207 117.215 67.6452 117.215 68.0377V69.1698C117.215 69.5623 117.305 69.849 117.486 70.0302C117.668 70.2113 117.954 70.3019 118.347 70.3019H119.909Z" fill="black"/>
<path d="M128.53 72C128.016 72 127.564 71.8189 127.171 71.4566C126.794 71.0944 126.605 70.5208 126.605 69.7358V56.1507H128.53V69.6226C128.53 69.8641 128.59 70.0377 128.711 70.1434C128.831 70.2491 129.035 70.3019 129.322 70.3019H129.775V72H128.53Z" fill="black"/>
<path d="M2.37752 100.491V79.66H4.18888V100.491H2.37752Z" fill="black"/>
<path d="M35.1076 98C33.7792 98 32.8056 97.7208 32.1867 97.1623C31.5679 96.5887 31.2584 95.6604 31.2584 94.3773V90.3018C31.2584 89.0036 31.5377 88.0753 32.0962 87.5168C32.6547 86.9583 33.583 86.679 34.8811 86.679H35.4925C36.5642 86.679 37.3718 86.9809 37.9152 87.5847C38.4737 88.1734 38.7529 89.0414 38.7529 90.1886V93.132H33.183V94.8302C33.183 95.2981 33.3264 95.6604 33.6132 95.917C33.9 96.1736 34.3226 96.3019 34.8811 96.3019H38.0284V98H35.1076ZM36.8736 91.4339V89.7357C36.8736 89.3433 36.7453 89.0187 36.4887 88.7621C36.2321 88.5055 35.9076 88.3772 35.5151 88.3772H34.6547C34.1113 88.3772 33.7264 88.5055 33.5 88.7621C33.2887 89.0036 33.183 89.3659 33.183 89.8489V91.4339H36.8736Z" fill="black"/>
<path d="M44.5226 98C43.7527 98 43.164 97.751 42.7565 97.2529C42.3489 96.7547 42.1451 96.0981 42.1451 95.283V88.3772H40.6734V86.679H42.1451V83.962H44.0697V86.679H46.6962V88.3772H44.0697V95.3962C44.0697 95.7283 44.1527 95.9623 44.3188 96.0981C44.4848 96.234 44.7414 96.3019 45.0886 96.3019H46.6962V98H44.5226Z" fill="black"/>
<path d="M59.2749 98H56.3088L54.8823 91.8641L53.32 98H50.4218L48.1577 86.679H50.1501L51.9841 96.5509L53.9993 88.7168H55.9239L57.8031 96.5509L59.6371 86.679H61.5164L59.2749 98Z" fill="black"/>
<path d="M71.7768 94.3773C71.7768 95.6453 71.4598 96.566 70.8258 97.1396C70.2069 97.7132 69.2409 98 67.9276 98H67.6333C66.3201 98 65.3464 97.7132 64.7125 97.1396C64.0936 96.566 63.7841 95.6453 63.7841 94.3773V90.3018C63.7841 89.0338 64.0936 88.113 64.7125 87.5394C65.3464 86.9658 66.3201 86.679 67.6333 86.679H67.9276C69.2409 86.679 70.2069 86.9658 70.8258 87.5394C71.4598 88.113 71.7768 89.0338 71.7768 90.3018V94.3773ZM69.8522 89.8489C69.8522 89.381 69.7088 89.0187 69.422 88.7621C69.1352 88.5055 68.7125 88.3772 68.154 88.3772H67.4069C66.8484 88.3772 66.4257 88.5055 66.1389 88.7621C65.8521 89.0187 65.7087 89.381 65.7087 89.8489V94.8302C65.7087 95.2981 65.8521 95.6604 66.1389 95.917C66.4257 96.1736 66.8484 96.3019 67.4069 96.3019H68.154C68.7125 96.3019 69.1352 96.1736 69.422 95.917C69.7088 95.6604 69.8522 95.2981 69.8522 94.8302V89.8489Z" fill="black"/>
<path d="M75.1768 86.679H76.9881V87.2904C77.4863 86.8828 78.0901 86.679 78.7995 86.679H80.4524V88.4904H78.5731C78.075 88.4904 77.7051 88.6564 77.4636 88.9885C77.2221 89.3206 77.1013 89.6451 77.1013 89.9621V98H75.1768V86.679Z" fill="black"/>
<path d="M88.3772 98L85.2753 92.4075L84.6413 93.1547V98H82.7167V82.1507H84.6413V90.6188L88.0376 86.679H90.4603L86.6338 91.049L90.6188 98H88.3772Z" fill="black"/>
<path d="M2.2358 40.1131V37.8489H4.5V40.1131H2.2358Z" fill="#DF3932"/>
<path d="M26.627 42.3773C26.627 43.6453 26.31 44.566 25.676 45.1396C25.0571 45.7132 24.0911 46 22.7778 46H18.7928V30.1506H20.7174V35.1319C21.1702 34.83 21.7363 34.679 22.4155 34.679H22.7778C24.1061 34.679 25.0798 34.9658 25.6986 35.5394C26.3175 36.0979 26.627 37.0187 26.627 38.3017V42.3773ZM22.1891 36.3772C21.691 36.3772 21.3212 36.513 21.0797 36.7847C20.8382 37.0413 20.7174 37.3206 20.7174 37.6225V44.3019H23.0042C23.5627 44.3019 23.9854 44.1736 24.2722 43.917C24.559 43.6603 24.7024 43.2981 24.7024 42.8301V37.8489C24.7024 37.381 24.559 37.0187 24.2722 36.7621C23.9854 36.5055 23.5627 36.3772 23.0042 36.3772H22.1891Z" fill="#DF3932"/>
<path d="M26.821 72C26.6248 72 26.4059 71.9396 26.1644 71.8189C25.938 71.6981 25.7417 71.5321 25.5757 71.3208C25.2285 71.7736 24.7681 72 24.1945 72H22.6322C21.485 72 20.6473 71.7736 20.119 71.3208C19.6058 70.8528 19.3491 70.0604 19.3491 68.9434V68.4905C19.3491 66.1508 20.4511 64.981 22.6549 64.981H25.0096V63.8489C25.0096 63.381 24.8662 63.0187 24.5794 62.7621C24.2926 62.5055 23.87 62.3772 23.3115 62.3772H20.2548V60.679H23.0851C24.3983 60.679 25.3644 60.9658 25.9832 61.5394C26.6172 62.113 26.9342 63.0338 26.9342 64.3018V69.7358C26.9342 69.9622 27.0172 70.1358 27.1833 70.2566C27.3644 70.3623 27.6588 70.4151 28.0663 70.4151V72H26.821ZM23.9681 70.3019C24.421 70.3019 24.7077 70.1962 24.8285 69.9849C24.9493 69.7736 25.0096 69.5019 25.0096 69.1698V66.6792H22.6322C22.2398 66.6792 21.9152 66.8075 21.6586 67.0641C21.402 67.3207 21.2737 67.6452 21.2737 68.0377V69.1698C21.2737 69.5622 21.3643 69.849 21.5454 70.0302C21.7266 70.2113 22.0134 70.3019 22.4058 70.3019H23.9681Z" fill="#DF3932"/>
<path d="M20.1416 86.679H21.953V87.2224C22.4209 86.8602 23.0247 86.679 23.7643 86.679H24.353C25.5757 86.679 26.4814 86.9658 27.0701 87.5394C27.6738 88.113 27.9757 89.0338 27.9757 90.3018V98H26.0512V89.8489C26.0512 89.3961 25.9153 89.0413 25.6436 88.7847C25.387 88.513 25.0323 88.3772 24.5794 88.3772H23.5379C23.0398 88.3772 22.67 88.513 22.4285 88.7847C22.1869 89.0413 22.0662 89.3206 22.0662 89.6225V98H20.1416V86.679Z" fill="#DF3932"/>
</svg>
